<svg width="666" height="645" viewBox="0 0 666 645" fill="none" xmlns="http://www.w3.org/2000/svg">
<path d="M157 130C157 94.7 185.7 66 221 66H445C480.3 66 509 94.7 509 130V514C509 549.3 480.3 578 445 578H221C185.7 578 157 549.3 157 514V130ZM285 514C285 522.8 292.2 530 301 530H365C373.8 530 381 522.8 381 514C381 505.2 373.8 498 365 498H301C292.2 498 285 505.2 285 514ZM445 130H221V450H445V130Z" fill="#FF9B00"/>
<path d="M80 522L586 123" stroke="#FF9B00" stroke-width="60" stroke-linecap="round"/>
</svg>
